<?xml version="1.0" encoding="utf-8"?>
<!-- Generator: Adobe Illustrator 16.2.1, SVG Export Plug-In . SVG Version: 6.00 Build 0)  -->
<!DOCTYPE svg PUBLIC "-//W3C//DTD SVG 1.1//EN" "http://www.w3.org/Graphics/SVG/1.1/DTD/svg11.dtd">
<svg version="1.1"
	 id="svg1901" xmlns:dc="http://purl.org/dc/elements/1.1/" xmlns:cc="http://creativecommons.org/ns#" xmlns:rdf="http://www.w3.org/1999/02/22-rdf-syntax-ns#" xmlns:svg="http://www.w3.org/2000/svg" xmlns:sodipodi="http://sodipodi.sourceforge.net/DTD/sodipodi-0.dtd" xmlns:inkscape="http://www.inkscape.org/namespaces/inkscape" inkscape:output_extension="org.inkscape.output.svg.inkscape" sodipodi:docname="Socionics_symbol_Si.svg" inkscape:version="0.46" sodipodi:version="0.32"
	 xmlns="http://www.w3.org/2000/svg" xmlns:xlink="http://www.w3.org/1999/xlink" x="0px" y="0px" width="200px" height="200px"
	 viewBox="0 0 200 200" enable-background="new 0 0 200 200" xml:space="preserve">
<sodipodi:namedview  inkscape:cy="100" inkscape:cx="111.04418" inkscape:zoom="2.49" showgrid="false" pagecolor="#ffffff" bordercolor="#666666" guidetolerance="10.0" objecttolerance="10.0" gridtolerance="10.0" borderopacity="1.0" id="base" inkscape:current-layer="layer1" inkscape:window-y="202" inkscape:window-x="697" inkscape:window-width="925" inkscape:window-height="900" inkscape:pageshadow="2" inkscape:pageopacity="0.0">
	</sodipodi:namedview>
<defs>
	
	
		<inkscape:perspective  inkscape:vp_z="200 : 100 : 1" inkscape:vp_y="0 : 1000 : 0" inkscape:vp_x="0 : 100 : 1" sodipodi:type="inkscape:persp3d" id="perspective3808" inkscape:persp3d-origin="100 : 66.666667 : 1">
		</inkscape:perspective>
</defs>
<g id="layer1">
	<path d="M100.201,199.423c-54.711,0-99.221-44.421-99.221-99.021c0-54.6,44.51-99.02,99.221-99.02
		c54.711,0,99.222,44.42,99.222,99.02v0.38c0,26.444-10.334,51.256-29.097,69.863C151.613,189.202,126.709,199.423,100.201,199.423z
		 M100.201,25.062c-41.653,0-75.541,33.797-75.541,75.339c0,41.543,33.887,75.34,75.541,75.34c41.654,0,75.541-33.627,75.541-74.96
		v-0.38C175.741,58.859,141.854,25.062,100.201,25.062z"/>
</g>
</svg>
